<?xml version="1.0" encoding="UTF-8" standalone="no"?>
<!-- Created with Inkscape (http://www.inkscape.org/) -->

<svg
   xmlns:dc="http://purl.org/dc/elements/1.1/"
   xmlns:cc="http://creativecommons.org/ns#"
   xmlns:rdf="http://www.w3.org/1999/02/22-rdf-syntax-ns#"
   xmlns:svg="http://www.w3.org/2000/svg"
   xmlns="http://www.w3.org/2000/svg"
   xmlns:sodipodi="http://sodipodi.sourceforge.net/DTD/sodipodi-0.dtd"
   xmlns:inkscape="http://www.inkscape.org/namespaces/inkscape"
   width="400"
   height="146.13557"
   viewBox="0 0 105.83333 38.665036"
   version="1.1"
   id="svg26845"
   inkscape:version="0.92.4 (5da689c313, 2019-01-14)"
   sodipodi:docname="Hansaplast Logo 2020.svg">
  <defs
     id="defs26839" />
  <sodipodi:namedview
     id="base"
     pagecolor="#ffffff"
     bordercolor="#666666"
     borderopacity="1.0"
     inkscape:pageopacity="0.0"
     inkscape:pageshadow="2"
     inkscape:zoom="2"
     inkscape:cx="121.73102"
     inkscape:cy="70.414907"
     inkscape:document-units="px"
     inkscape:current-layer="svg26845"
     showgrid="false"
     fit-margin-top="0"
     fit-margin-left="0"
     fit-margin-right="0"
     fit-margin-bottom="0"
     units="px"
     inkscape:window-width="1920"
     inkscape:window-height="1001"
     inkscape:window-x="-9"
     inkscape:window-y="-9"
     inkscape:window-maximized="1" />
  <metadata
     id="metadata26842">
    <rdf:RDF>
      <cc:Work
         rdf:about="">
        <dc:format>image/svg+xml</dc:format>
        <dc:type
           rdf:resource="http://purl.org/dc/dcmitype/StillImage" />
        <dc:title></dc:title>
      </cc:Work>
    </rdf:RDF>
  </metadata>
  <path
     id="path15601"
     d="m 0,0 v 28.296469 c 47.130596,12.115446 94.15255,14.868096 105.83333,1.47594 V 0 H 0"
     style="clip-rule:nonzero;fill:#fdfdfd;fill-opacity:1;fill-rule:nonzero;stroke:none;stroke-width:2.31804609"
     inkscape:connector-curvature="0" />
  <path
     id="path15605"
     d="m 0,0 v 25.027674 c 56.248885,11.898081 97.158756,9.978471 105.83333,-8.801383 V 0 H 0"
     style="clip-rule:nonzero;fill:#292878;fill-opacity:1;fill-rule:nonzero;stroke:none;stroke-width:2.31804609"
     inkscape:connector-curvature="0" />
  <path
     inkscape:connector-curvature="0"
     style="clip-rule:nonzero;fill:#fdfdfd;fill-opacity:1;fill-rule:nonzero;stroke:none;stroke-width:2.31804609"
     d="m 61.790469,16.851109 c 0,0.923598 1.086553,1.485013 2.517222,1.485013 1.774784,0 2.589699,-1.131891 2.589699,-2.797991 0,-1.666037 -0.814915,-2.797928 -2.589699,-2.797928 -1.430669,0 -2.517222,0.606489 -2.517222,1.521209 z m 22.220627,-3.223515 c 0,-1.602758 1.38541,-2.462952 3.631014,-2.462952 2.607802,0 3.866407,1.131891 3.866407,1.131891 l -0.950741,1.394402 c 0,0 -1.050382,-0.986939 -2.915666,-0.986939 -1.394463,0 -1.7476,0.425791 -1.7476,0.869256 0,1.838124 6.0396,-0.03287 6.0396,3.522357 0,1.829062 -1.647986,2.788867 -4.038477,2.788867 -2.906618,0 -4.092786,-1.439733 -4.092786,-1.439733 l 1.014144,-1.403465 c 0,0 1.041293,1.276709 3.151085,1.276709 1.312965,0 2.145997,-0.407391 2.145997,-1.113756 0,-1.829062 -6.102977,0.03942 -6.102977,-3.576637 m -6.555746,6.256882 c -2.426677,0 -3.477025,-1.050353 -3.477025,-2.662111 0,-2.354269 2.399538,-2.499149 4.14712,-2.589697 1.829059,-0.09072 2.272787,-0.244439 2.272787,-0.896463 0,-0.751502 -0.923597,-1.032209 -2.109831,-1.032209 -1.756583,0 -2.997157,0.833049 -2.997157,0.833049 l -0.7063,-1.421599 c 0,0 1.349191,-0.950804 3.775934,-0.950804 2.200311,0 3.793976,0.651829 3.793976,2.598769 v 5.885699 h -1.720416 v -0.760646 c 0,0 -1.014144,0.996012 -2.979088,0.996012 m 2.942882,-4.237662 c 0,0 -0.42579,0.371246 -2.272787,0.461927 -1.629897,0.07229 -2.263721,0.298975 -2.263721,1.168098 0,0.742501 0.588748,1.113757 1.901535,1.113757 1.521216,0 2.634973,-0.570354 2.634973,-1.46694 z m -27.381937,4.237662 c -2.426743,0 -3.468024,-1.050353 -3.468024,-2.662111 0,-2.354269 2.390471,-2.499149 4.147119,-2.589697 1.820058,-0.09072 2.26372,-0.244439 2.26372,-0.896463 0,-0.751502 -0.923597,-1.032209 -2.109765,-1.032209 -1.74758,0 -2.988089,0.833049 -2.988089,0.833049 l -0.715368,-1.421599 c 0,0 1.349191,-0.950804 3.775868,-0.950804 2.200377,0 3.794003,0.651829 3.794003,2.598769 v 5.885699 h -1.720443 v -0.760646 c 0,0 -1.005076,0.996012 -2.979021,0.996012 m 2.942815,-4.237662 c 0,0 -0.425789,0.371246 -2.26372,0.461927 -1.638898,0.07229 -2.272721,0.298975 -2.272721,1.168098 0,0.742501 0.588747,1.113757 1.892402,1.113757 1.530282,0 2.644039,-0.570354 2.644039,-1.46694 z M 31.927513,12.151653 c 0,0 0.941667,-0.987011 2.870405,-0.987011 2.354267,0 3.549503,1.149964 3.549503,3.24166 v 5.242808 h -1.847195 v -5.242808 c 0,-1.149964 -0.688164,-1.666099 -2.05549,-1.666099 -1.439737,0 -2.481018,0.579548 -2.481018,1.503075 v 5.405832 h -1.8834 v -8.258102 h 1.847195 z M 16.027132,13.02091 V 8.593079 h 1.93774 V 19.64911 h -1.93774 V 14.650802 H 9.525749 V 19.64911 H 7.5970771 V 8.593079 H 9.525749 V 13.02091 Z M 93.935233,11.391008 V 9.0367386 h 1.865311 v 2.3542694 h 2.109771 v 1.47594 h -2.109771 v 4.554648 c 0,0.470467 0.181026,0.796781 0.833037,0.796781 0.706287,0 1.276734,-0.126817 1.276734,-0.126817 v 1.557417 c 0,0 -0.742492,0.108416 -1.475948,0.108416 -1.982995,0 -2.499134,-0.869318 -2.499134,-2.218441 V 12.86662 H 92.432121 V 11.39068 Z M 70.383484,8.5206034 h 1.901601 V 19.64911 H 70.383484 Z M 23.189544,19.884476 c -2.426677,0 -3.468023,-1.050353 -3.468023,-2.662111 0,-2.354269 2.390471,-2.499149 4.14712,-2.589697 1.820056,-0.09072 2.26372,-0.244439 2.26372,-0.896463 0,-0.751502 -0.923597,-1.032209 -2.109765,-1.032209 -1.756649,0 -2.997158,0.833049 -2.997158,0.833049 l -0.706299,-1.421599 c 0,0 1.34919,-0.950804 3.775867,-0.950804 2.200377,0 3.794003,0.651829 3.794003,2.598769 v 5.885699 h -1.720443 v -0.760646 c 0,0 -1.014144,0.996012 -2.979022,0.996012 m 2.942817,-4.237662 c 0,0 -0.425791,0.371246 -2.26372,0.461927 -1.629832,0.07229 -2.272723,0.298975 -2.272723,1.168098 0,0.742501 0.588747,1.113757 1.892402,1.113757 1.530283,0 2.644041,-0.570354 2.644041,-1.46694 z M 61.790469,22.55565 H 59.91607 V 11.391008 h 1.838193 v 0.796842 c 0,0 0.996008,-1.023208 2.834134,-1.023208 2.870406,0 4.165255,1.96494 4.165255,4.337282 0,2.372404 -1.349189,4.409759 -4.183324,4.409759 -1.838193,0 -2.779859,-0.968878 -2.779859,-0.968878 z M 40.257958,13.627594 c 0,-1.602758 1.385395,-2.462952 3.631046,-2.462952 2.607768,0 3.866413,1.131891 3.866413,1.131891 l -0.959802,1.394402 c 0,0 -1.041347,-0.986939 -2.906611,-0.986939 -1.394464,0 -1.756649,0.425791 -1.756649,0.869256 0,1.838124 6.048655,-0.03287 6.048655,3.522357 0,1.829062 -1.648031,2.788867 -4.038504,2.788867 -2.915678,0 -4.101846,-1.439733 -4.101846,-1.439733 l 1.014143,-1.403465 c 0,0 1.041347,1.276709 3.151112,1.276709 1.31292,0 2.145971,-0.407391 2.145971,-1.113756 0,-1.829062 -6.093928,0.03942 -6.093928,-3.576637"
     id="path15609" />
  <path
     id="path15611"
     d="m 0,26.467407 v 1.829062 c 47.130596,12.106374 94.15255,14.868096 105.83333,1.47594 V 20.753733 C 96.262349,36.500158 56.592934,38.37456 0,26.467407"
     style="clip-rule:nonzero;fill:#dd052b;fill-opacity:1;fill-rule:nonzero;stroke:none;stroke-width:2.31804609"
     inkscape:connector-curvature="0" />
</svg>
